<svg width="412" height="283" viewBox="0 0 412 283" fill="none" xmlns="http://www.w3.org/2000/svg">
<path d="M175.5 21.9158C97.8498 40.404 28.1667 28.4158 2 16.4158L11.9435 34.4158C47.9624 42.2876 131.1 53.3922 175.5 34.5C230.367 11.1543 400.523 0.654613 406.504 40.032C405.355 29.0636 403.747 20.7368 401.5 16.4158C388.5 -8.58417 270 -0.584169 175.5 21.9158Z" fill="#397A2A"/>
<path d="M15 40L69.3906 137L11.4985 216.021C38.3906 230.5 159.362 225.372 207.215 207.084C245.266 192.543 339.451 192.054 408.391 209.584C400.106 209.584 408.9 216.084 408.391 209.584C408.748 170.084 410.13 94.4694 406.504 49C396.183 3 225.5 19.8897 175.5 40.032C135.5 56.1458 51.5632 46.7141 15 40Z" fill="#397A2A"/>
<path d="M2 233.916C39.5 245.749 131 252.416 201.5 233.916C247.481 221.85 301.41 215.055 346.5 219.436C373.062 222.017 396.061 226.462 411.085 230.416C410.594 227.914 410.054 220.654 409.784 215.916C346.5 208.416 253.5 200.081 208.324 215.916C151.324 235.895 56.1631 235.93 7.49466 226.416L2 233.916Z" fill="#397A2A"/>
<path fill-rule="evenodd" clip-rule="evenodd" d="M406.504 40.032C406.552 40.4887 406.599 40.95 406.645 41.4158C406.62 40.9479 406.573 40.4866 406.504 40.032Z" fill="#D9D9D9"/>
<path d="M7.49466 226.416C56.1631 235.93 151.324 235.895 208.324 215.916C253.5 200.081 346.5 208.416 409.784 215.916C409.638 213.346 408.391 209.584 408.391 209.584C400.106 209.584 408.9 216.084 408.391 209.584C339.451 192.054 245.266 192.543 207.215 207.084C159.362 225.372 38.3906 230.5 11.4985 216.021L7.49466 226.416Z" fill="#4A8321"/>
<path d="M175.5 34.5C131.1 53.3922 47.9624 42.2876 11.9435 34.4158L15 40C51.5632 46.7141 135.5 56.1458 175.5 40.032C225.5 19.8897 396.183 3 406.504 49C406.339 46.928 406.836 43.3415 406.645 41.4158C406.599 40.95 406.552 40.4887 406.504 40.032C400.523 0.654613 230.367 11.1543 175.5 34.5Z" fill="#4A8321"/>
<path d="M411.085 230.416C396.061 226.462 373.062 222.017 346.5 219.436V282.416C346.5 281.772 348.02 281.889 350.624 282.09C362.185 282.978 395.1 285.508 411.085 230.416Z" fill="#164218"/>
<path d="M411.085 230.416C411.473 232.395 410.524 230.1 411.085 230.416ZM411.085 230.416C396.061 226.462 373.062 222.017 346.5 219.436M411.085 230.416C410.594 227.914 410.054 220.654 409.784 215.916M411.085 230.416C395.1 285.508 362.185 282.978 350.624 282.09C348.02 281.889 346.5 281.772 346.5 282.416M346.5 219.436C301.41 215.055 247.481 221.85 201.5 233.916C131 252.416 39.5 245.749 2 233.916L7.49466 226.416M346.5 219.436C346.5 241.596 346.5 285.216 346.5 282.416M346.5 219.436V282.416M11.9435 34.4158L2 16.4158C28.1667 28.4158 97.8498 40.404 175.5 21.9158C270 -0.584169 388.5 -8.58417 401.5 16.4158C403.747 20.7368 405.355 29.0636 406.504 40.032M11.9435 34.4158C47.9624 42.2876 131.1 53.3922 175.5 34.5C230.367 11.1543 400.523 0.654613 406.504 40.032M11.9435 34.4158L15 40M406.645 41.4158C406.836 43.3415 406.339 46.928 406.504 49M406.645 41.4158C406.62 40.9479 406.573 40.4866 406.504 40.032M406.645 41.4158C406.599 40.95 406.552 40.4887 406.504 40.032M15 40L69.3906 137L11.4985 216.021M15 40C51.5632 46.7141 135.5 56.1458 175.5 40.032C225.5 19.8897 396.183 3 406.504 49M406.504 49C410.13 94.4694 408.748 170.084 408.391 209.584M7.49466 226.416C56.1631 235.93 151.324 235.895 208.324 215.916C253.5 200.081 346.5 208.416 409.784 215.916M7.49466 226.416L11.4985 216.021M409.784 215.916C409.638 213.346 408.391 209.584 408.391 209.584M11.4985 216.021C38.3906 230.5 159.362 225.372 207.215 207.084C245.266 192.543 339.451 192.054 408.391 209.584M408.391 209.584C408.9 216.084 400.106 209.584 408.391 209.584Z" stroke="#397A2A"/>
</svg>
